<svg xmlns="http://www.w3.org/2000/svg" version="1.1" xmlns:xlink="http://www.w3.org/1999/xlink" xmlns:svgjs="http://svgjs.dev/svgjs" viewBox="0 0 800 800"><defs><linearGradient x1="50%" y1="0%" x2="50%" y2="100%" id="ccchaos-grad"><stop stop-color="hsl(206, 75%, 49%)" stop-opacity="1" offset="0%"></stop><stop stop-color="hsl(331, 90%, 56%)" stop-opacity="1" offset="100%"></stop></linearGradient></defs><g stroke-width="2" stroke="url(#ccchaos-grad)" fill="none" stroke-linecap="round"><path d="M378.99 55.64Q386.95 59.9 395.08 64.57 403.41 69.68 411.93 75.25 420.67 81.3 429.64 87.82 438.84 94.77 448.28 102.13 457.96 109.85 467.89 117.86 478.06 126.08 488.46 134.44 499.09 142.83 509.95 151.17 521.01 159.35 532.26 167.28 543.69 174.87 555.28 182.02 567 188.68 578.84 194.77 590.76 200.25 602.74 205.1 614.76 209.29 626.78 212.84 638.77 215.78 650.71 218.15 662.55 220.02 674.29 221.47 685.87 222.61 697.28 223.53 715.15 229.83 722.93 245.36 722.74 255.42 721.26 265.47 718.55 275.53 714.69 285.59 709.82 295.65 704.12 305.71 697.78 315.77 691.03 325.83 684.1 335.89 677.24 345.95 670.68 356 664.67 366.06 659.4 376.12 655.06 386.18 651.81 396.24 649.76 406.3 648.99 416.36 649.51 426.42 651.31 436.48 654.33 446.54 658.46 456.6 663.56 466.66 669.45 476.71 675.92 486.77 682.74 496.83 689.67 506.89 696.48 516.95 702.92 527.01 708.76 537.07 713.81 547.13 706.66 560.09 699.19 573.46 691.41 587.01 683.31 600.49 674.89 613.67 666.15 626.31 657.09 638.18 647.74 649.09 638.1 658.86 628.18 667.33 618 674.4 607.59 679.99 596.95 684.07 586.12 686.65 575.12 687.78 563.96 687.56 552.69 686.13 541.32 683.66 529.87 680.36 518.39 676.45 506.88 672.2 495.39 667.86 483.93 663.72 472.52 660.03 461.19 657.05 449.97 655.04 438.86 654.21 427.88 654.74 417.07 656.78 406.41 660.45 395.93 665.8 385.64 672.84 371.61 672.98 357.62 676.92 343.51 684.93 329.22 693.83 314.46 701.47 299.35 706.84 283.54 706.42 267.29 701.69 258.9 696.66 250.36 690.09 241.67 682.06 232.84 672.65 223.87 662 214.77 650.3 205.55 637.73 196.23 624.53 186.81 610.92 177.3 597.15 167.72 583.48 158.08 570.13 148.4 557.33 138.69 545.31 128.97 534.23 119.24 524.26 118.29 514.53 117.19 504.8 115.97 495.07 114.69 485.35 113.38 475.62 112.09 465.89 110.87 456.17 109.76 446.44 108.8 436.71 108.02 426.99 107.45 417.26 107.11 407.53 107.01 397.8 107.16 388.08 107.54 378.35 108.16 368.62 108.98 358.9 109.97 349.17 111.11 339.44 112.34 329.72 113.64 319.99 114.95 310.26 116.22 300.54 117.42 290.81 118.49 281.08 119.41 271.36 120.14 261.63 120.65 251.9 120.93 242.18 120.96 232.45 125.05 216.77 138.27 209.08 155.75 206.59 172.87 204.41 189.4 201.59 205.58 197.75 221.24 191.45 236.63 183.38 244.2 178.28 251.72 172.59 259.21 166.33 266.67 159.57 274.14 152.36 281.62 144.79 289.13 136.92 296.69 128.86 304.33 120.7 312.05 112.52 319.88 104.42 327.83 96.48 335.93 88.78 344.17 81.37 352.59 74.32 361.2 67.67 374.49 58.54 378.99 55.64" stroke-dasharray="2 2" transform="rotate(0, 400, 400)" opacity="0.34"></path><path d="M378.05 67.51Q386.14 71.56 394.42 76.02 402.88 80.91 411.55 86.24 420.43 92.04 429.52 98.29 438.83 104.97 448.36 112.05 458.1 119.49 468.05 127.23 478.21 135.2 488.56 143.33 499.1 151.54 509.82 159.73 520.69 167.82 531.72 175.71 542.86 183.32 554.12 190.57 565.46 197.39 576.87 203.7 588.31 209.45 599.77 214.61 611.22 219.16 622.63 223.08 633.98 226.38 645.24 229.11 656.38 231.29 667.39 233 678.23 234.3 688.87 235.29 705.18 241.3 711.41 256.35 710.6 266.16 708.63 275.96 705.56 285.77 701.51 295.58 696.59 305.39 690.97 315.2 684.84 325 678.38 334.81 671.82 344.62 665.36 354.43 659.21 364.24 653.57 374.05 648.63 383.85 644.54 393.66 641.45 403.47 639.44 413.28 638.59 423.09 638.92 432.9 640.42 442.7 643.04 452.51 646.7 462.32 651.28 472.13 656.63 481.94 662.57 491.75 668.92 501.56 675.47 511.36 682 521.17 688.3 530.98 694.17 540.79 699.42 550.6 692.83 563.37 685.97 576.26 678.84 589.06 671.41 601.56 663.7 613.55 655.71 624.85 647.42 635.27 638.86 644.66 630.02 652.88 620.91 659.84 611.56 665.46 601.96 669.71 592.13 672.58 582.1 674.12 571.88 674.41 561.49 673.54 550.95 671.66 540.29 668.93 529.51 665.56 518.66 661.76 507.75 657.74 496.8 653.75 485.84 650.03 474.88 646.8 463.95 644.3 453.08 642.72 442.27 642.26 431.55 643.07 420.93 645.28 410.43 648.97 400.06 654.2 389.84 660.97 376.57 660.85 363.22 664.22 349.57 671.49 335.65 679.72 321.16 687.18 306.27 692.8 290.67 693.52 274.63 690.47 266.36 686.55 257.94 681.23 249.39 674.52 240.7 666.5 231.9 657.25 222.98 646.91 213.96 635.64 204.84 623.6 195.65 611.01 186.38 598.05 177.06 584.96 167.7 571.93 158.3 559.2 148.89 546.94 139.47 535.36 130.06 524.61 128.98 515.17 127.76 505.72 126.45 496.28 125.09 486.84 123.73 477.4 122.42 467.95 121.18 458.51 120.07 449.07 119.12 439.63 118.36 430.19 117.82 420.74 117.51 411.3 117.44 401.86 117.62 392.42 118.03 382.97 118.68 373.53 119.52 364.09 120.55 354.65 121.72 345.21 122.99 335.76 124.34 326.32 125.7 316.88 127.04 307.44 128.31 298 129.48 288.55 130.5 279.11 131.34 269.67 131.97 260.23 132.38 250.79 132.55 241.34 136.7 226.44 149.58 219.82 166.55 217.98 183.2 216.08 199.26 213.05 214.98 208.83 230.16 202.03 245.05 193.49 252.34 188.2 259.57 182.35 266.74 175.99 273.87 169.18 280.97 161.97 288.06 154.44 295.15 146.67 302.26 138.74 309.41 130.74 316.6 122.75 323.87 114.86 331.23 107.13 338.69 99.65 346.26 92.46 353.97 85.62 361.83 79.17 373.95 70.32 378.05 67.51" stroke-dasharray="3 7" transform="rotate(4.04, 400, 400)" opacity="0.91"></path><path d="M378.27 79.38Q386.49 83.23 394.88 87.47 403.46 92.13 412.23 97.23 421.19 102.77 430.35 108.74 439.69 115.13 449.23 121.93 458.94 129.07 468.83 136.52 478.89 144.22 489.1 152.1 499.46 160.09 509.94 168.1 520.54 176.06 531.24 183.89 542.02 191.49 552.87 198.79 563.75 205.72 574.65 212.21 585.56 218.21 596.43 223.67 607.27 228.56 618.03 232.86 628.7 236.56 639.26 239.68 649.69 242.25 659.95 244.29 670.04 245.87 679.94 247.06 694.72 253.04 699.53 267.7 698.16 277.25 695.77 286.8 692.43 296.35 688.24 305.9 683.33 315.46 677.83 325.01 671.93 334.56 665.78 344.11 659.58 353.66 653.51 363.21 647.76 372.77 642.49 382.32 637.87 391.87 634.03 401.42 631.08 410.97 629.12 420.52 628.2 430.07 628.36 439.63 629.58 449.18 631.83 458.73 635.04 468.28 639.12 477.83 643.95 487.38 649.37 496.93 655.23 506.48 661.36 516.04 667.56 525.59 673.66 535.14 679.46 544.69 684.81 554.24 678.73 566.48 672.41 578.59 665.86 590.39 659.06 601.71 652.01 612.38 644.7 622.25 637.13 631.17 629.31 639.04 621.23 645.77 612.91 651.29 604.34 655.56 595.54 658.59 586.52 660.4 577.28 661.05 567.85 660.63 558.24 659.24 548.47 657.03 538.54 654.16 528.49 650.8 518.32 647.15 508.06 643.41 497.73 639.79 487.35 636.5 476.93 633.73 466.5 631.68 456.07 630.51 445.67 630.4 435.31 631.46 425 633.81 414.77 637.51 396.44 645.33 381.9 648.2 368.92 651.97 355.68 657.95 341.89 665.65 327.72 673.12 312.86 678.23 297.58 680.86 281.6 678.1 265.22 671.63 256.81 666.18 248.28 659.48 239.65 651.61 230.92 642.64 222.11 632.7 213.21 621.93 204.26 610.48 195.25 598.51 186.2 586.22 177.11 573.79 168.01 561.4 158.91 549.24 149.81 537.49 140.72 526.3 139.51 517.13 138.19 507.96 136.8 498.79 135.4 489.62 134.01 480.45 132.68 471.28 131.44 462.11 130.35 452.94 129.42 443.77 128.69 434.6 128.18 425.43 127.91 416.26 127.87 407.09 128.08 397.92 128.52 388.75 129.19 379.58 130.06 370.41 131.11 361.24 132.31 352.07 133.62 342.9 134.99 333.73 136.4 324.56 137.8 315.39 139.14 306.22 140.38 297.05 141.5 287.88 142.45 278.71 143.21 269.54 143.75 260.37 144.06 251.2 148.29 236.97 160.84 231.15 177.32 229.66 193.49 227.78 209.12 224.38 224.4 219.67 239.14 212.33 253.58 203.31 260.63 197.83 267.6 191.86 274.5 185.42 281.34 178.58 288.13 171.39 294.88 163.93 301.61 156.27 308.33 148.49 315.05 140.67 321.79 132.89 328.57 125.22 335.39 117.73 342.29 110.47 349.26 103.52 356.34 96.9 363.52 90.66 374.55 82.09 378.27 79.38" stroke-dasharray="0 2" transform="rotate(8.08, 400, 400)" opacity="0.13"></path><path d="M379.65 91.25Q387.95 94.91 396.42 98.94 405.06 103.37 413.87 108.22 422.84 113.49 431.98 119.19 441.28 125.29 450.74 131.78 460.34 138.62 470.08 145.76 479.94 153.17 489.92 160.78 500 168.52 510.16 176.32 520.4 184.12 530.7 191.82 541.04 199.37 551.39 206.68 561.75 213.69 572.09 220.32 582.4 226.53 592.66 232.26 602.84 237.47 612.92 242.14 622.9 246.24 632.74 249.78 642.44 252.76 651.97 255.22 661.31 257.17 670.46 258.68 683.8 264.84 687.3 279.17 685.46 288.45 682.73 297.73 679.18 307.01 674.91 316.29 670.05 325.57 664.71 334.86 659.05 344.14 653.22 353.42 647.39 362.7 641.71 371.98 636.34 381.27 631.43 390.55 627.11 399.83 623.51 409.11 620.71 418.39 618.8 427.67 617.83 436.96 617.83 446.24 618.8 455.52 620.7 464.8 623.49 474.08 627.1 483.36 631.41 492.64 636.32 501.93 641.69 511.21 647.36 520.49 653.19 529.77 659.02 539.05 664.68 548.33 670.02 557.61 664.39 569.03 658.57 580.11 652.54 590.73 646.31 600.73 639.85 609.98 633.18 618.37 626.28 625.8 619.14 632.19 604.08 641.12 588.34 646.7 571.55 647.04 554.17 644.72 545.16 642.28 536 639.35 526.69 636.08 517.25 632.65 507.69 629.22 498.04 625.99 488.3 623.12 478.49 620.8 468.63 619.18 458.74 618.4 448.84 618.6 438.93 619.89 429.04 622.35 419.18 626.04 401.43 633.57 387.31 636.15 374.6 639.36 361.57 644.65 347.92 651.72 333.89 658.77 319.17 664.04 304.04 667.27 288.27 665.92 272.14 661.32 263.89 657.02 255.53 651.57 247.08 645.02 238.56 637.4 229.97 628.81 221.31 619.35 212.61 609.13 203.87 598.3 195.1 586.99 186.31 575.37 177.52 563.59 168.72 551.82 159.95 540.22 151.19 528.94 149.87 520.04 148.47 511.14 147.03 502.23 145.59 493.33 144.19 484.43 142.87 475.53 141.65 466.62 140.59 457.72 139.7 448.82 139.01 439.91 138.54 431.01 138.3 422.11 138.3 413.2 138.54 404.3 139.01 395.4 139.7 386.5 140.59 377.59 141.66 368.69 142.87 359.79 144.2 350.88 145.6 341.98 147.04 333.08 148.48 324.17 149.88 315.27 151.2 306.37 152.4 297.46 153.45 288.56 154.33 279.66 155.01 270.75 155.46 261.85 159.78 248.2 172.02 242.92 188.01 241.49 203.72 239.4 218.92 235.5 233.79 230.2 248.13 222.31 262.16 212.82 269 207.19 275.75 201.11 282.41 194.62 289 187.77 295.53 180.63 301.99 173.27 308.42 165.75 314.8 158.14 321.16 150.52 327.52 142.97 333.88 135.53 340.25 128.28 346.66 121.28 353.11 114.56 359.62 108.17 366.2 102.15 376.26 93.88 379.65 91.25" stroke-dasharray="7 10" transform="rotate(12.12, 400, 400)" opacity="0.96"></path><path d="M382.11 103.12Q398.92 110.4 416.31 119.21 434.26 129.62 452.71 141.59 471.59 154.94 490.83 169.35 510.31 184.38 529.93 199.52 549.56 214.24 569.08 228 588.35 240.32 607.24 250.83 625.64 259.28 643.41 265.61 660.45 269.92 676.69 272.49 674.74 290.48 669.52 308.47 661.54 326.46 651.61 344.45 640.72 362.44 629.95 380.43 620.39 398.42 612.99 416.41 608.49 434.4 607.34 452.39 609.65 470.38 615.2 488.37 623.43 506.36 633.51 524.35 644.44 542.34 655.13 560.33 644.51 580.55 633.22 598.43 621.21 613.15 608.41 624.13 594.81 631.1 580.4 634.1 565.19 633.52 549.24 630.04 532.6 624.59 515.34 618.29 497.57 612.37 479.38 608.03 460.88 606.4 442.18 608.37 423.4 614.59 404.65 625.36 392.58 624.14 380.08 626.49 367.1 631.45 353.61 637.86 339.61 644.47 325.08 650.05 310.06 653.46 294.58 653.77 278.68 650.33 262.43 642.8 245.89 631.17 229.14 615.78 212.25 597.24 195.3 576.43 178.36 554.37 161.5 532.17 158.64 514.9 155.71 497.63 153.01 480.35 150.81 463.08 149.32 445.81 148.7 428.54 149.01 411.27 150.22 393.99 152.2 376.72 154.76 359.45 157.64 342.18 160.56 324.9 163.22 307.63 165.36 290.36 166.76 273.09 167.28 255.81 183.1 254.94 198.64 253.45 213.85 250.8 228.67 246.53 243.1 240.36 257.12 232.17 270.72 222 283.92 210.08 296.77 196.74 309.3 182.44 321.57 167.67 333.67 152.96 345.68 138.78 357.69 125.57 375.95 108.37 382.11 103.12" stroke-dasharray="4 9" transform="rotate(16.16, 400, 400)" opacity="0.90"></path><path d="M385.51 114.99Q402.21 121.87 419.38 130.19 436.97 140.04 454.94 151.39 473.19 164.07 491.65 177.82 510.22 192.28 528.79 206.99 547.27 221.48 565.52 235.25 583.46 247.85 600.96 258.9 617.93 268.11 634.27 275.34 649.92 280.59 664.81 284.01 661.89 301.39 656.16 318.76 648.13 336.13 638.54 353.51 628.26 370.88 618.23 388.26 609.37 405.63 602.47 423.01 598.18 440.38 596.88 457.75 598.69 475.13 603.44 492.5 610.71 509.87 619.82 527.25 629.96 544.62 640.19 561.99 630.29 579.65 619.88 594.69 608.86 606.54 597.19 614.87 584.82 619.6 571.74 620.9 557.95 619.23 543.46 615.27 528.3 609.89 512.54 604.1 496.24 598.93 479.46 595.42 462.3 594.5 444.85 596.9 427.2 603.16 409.45 613.49 397.47 612.14 385.04 614.03 372.11 618.34 358.7 624.1 344.79 630.24 330.4 635.69 315.58 639.45 300.36 640.68 284.8 638.72 268.96 633.17 252.89 623.92 236.67 611.12 220.37 595.16 204.06 576.7 187.8 556.52 171.64 535.54 168.68 518.82 165.75 502.1 163.12 485.37 161.01 468.65 159.64 451.92 159.12 435.2 159.49 418.47 160.73 401.75 162.73 385.03 165.29 368.3 168.19 351.58 171.17 334.85 173.94 318.13 176.26 301.4 177.92 284.68 178.77 267.95 194.05 267 209.09 265.12 223.83 261.86 238.24 256.9 252.27 250.08 265.92 241.35 279.18 230.83 292.04 218.76 304.53 205.5 316.67 191.45 328.51 177.09 340.11 162.88 351.53 149.24 362.85 136.55 379.83 120.03 385.51 114.99" stroke-dasharray="5 9" transform="rotate(20.200000000000003, 400, 400)" opacity="0.72"></path><path d="M389.68 126.86Q406.09 133.34 422.86 141.18 439.92 150.46 457.22 161.17 474.68 173.17 492.22 186.23 509.75 200.06 527.18 214.26 544.41 228.42 561.36 242.09 577.93 254.85 594.04 266.32 609.61 276.21 624.58 284.31 638.89 290.53 652.49 294.93 648.78 311.64 642.68 328.35 634.7 345.06 625.51 361.77 615.86 378.48 606.56 395.19 598.36 411.9 591.96 428.61 587.87 445.32 586.45 462.03 587.8 478.74 591.81 495.45 598.16 512.16 606.31 528.87 615.6 545.58 625.25 562.29 616 577.2 606.34 589.41 596.21 598.55 585.55 604.48 574.3 607.26 562.44 607.16 549.96 604.68 536.84 600.46 523.12 595.31 508.81 590.08 493.97 585.69 478.63 582.97 462.87 582.7 446.75 585.48 430.35 591.73 413.74 601.63 401.79 600.16 389.37 601.62 376.49 605.32 363.14 610.43 349.35 616.07 335.15 621.31 320.57 625.28 305.67 627.22 290.5 626.51 275.11 622.72 259.56 615.65 243.93 605.31 228.26 591.93 212.61 575.94 197.05 557.94 181.62 538.64 178.62 522.49 175.72 506.34 173.18 490.19 171.21 474.04 169.96 457.89 169.54 441.73 169.98 425.58 171.25 409.43 173.25 393.28 175.8 377.13 178.7 360.98 181.7 344.82 184.57 328.67 187.05 312.52 188.95 296.37 190.11 280.22 204.84 278.91 219.37 276.43 233.64 272.46 247.62 266.78 261.27 259.31 274.56 250.1 287.48 239.3 300.02 227.17 312.2 214.04 324.01 200.31 335.5 186.41 346.7 172.73 357.66 159.66 368.43 147.51 384.38 131.69 389.68 126.86" stroke-dasharray="3 7" transform="rotate(24.24, 400, 400)" opacity="0.65"></path><path d="M394.41 138.72Q410.35 144.81 426.53 152.17 442.89 160.89 459.36 170.94 475.88 182.23 492.37 194.58 508.76 207.73 524.97 221.35 540.91 235.08 556.52 248.53 571.73 261.32 586.47 273.09 600.69 283.53 614.34 292.41 627.37 299.59 639.78 305.02 635.43 321.02 629.11 337.02 621.28 353.01 612.53 369.01 603.52 385 594.92 401 587.37 417 581.44 432.99 577.56 448.99 576.04 464.98 576.98 480.98 580.31 496.97 585.78 512.97 592.99 528.96 601.4 544.96 610.37 560.95 601.68 573.09 592.69 582.57 583.34 589.22 573.57 593.04 563.33 594.18 552.57 592.99 541.29 589.95 529.46 585.68 517.08 580.87 504.16 576.27 490.73 572.64 476.82 570.68 462.47 571 447.73 574.1 432.66 580.31 417.31 589.76 405.34 588.2 392.94 589.27 380.11 592.39 366.87 596.88 353.24 601.99 339.28 606.94 325.01 610.99 310.48 613.46 295.76 613.77 280.88 611.5 265.91 606.38 250.9 598.33 235.9 587.44 220.96 573.97 206.13 558.33 191.45 541.07 188.44 525.52 185.63 509.98 183.22 494.43 181.39 478.89 180.28 463.34 179.96 447.8 180.47 432.25 181.77 416.71 183.75 401.16 186.28 385.62 189.15 370.07 192.17 354.53 195.09 338.98 197.71 323.43 199.83 307.89 201.28 292.34 215.45 290.45 229.46 287.23 243.24 282.48 256.78 276.08 270.02 268.03 282.95 258.4 295.55 247.4 307.79 235.28 319.67 222.37 331.2 209.03 342.4 195.62 353.28 182.52 363.87 170.03 374.23 158.45 389.4 143.35 394.41 138.72" stroke-dasharray="5 6" transform="rotate(28.28, 400, 400)" opacity="0.72"></path><path d="M399.42 150.59Q414.72 156.29 430.14 163.17 445.64 171.31 461.15 180.71 476.61 191.28 491.96 202.88 507.14 215.3 522.07 228.27 536.71 241.48 550.99 254.59 564.86 267.27 578.27 279.19 591.19 290.04 603.58 299.58 615.42 307.64 626.7 314.1 621.88 329.33 615.46 344.56 607.87 359.79 599.61 375.02 591.24 390.25 583.33 405.49 576.4 420.72 570.92 435.95 567.26 451.18 565.66 466.41 566.23 481.64 568.94 496.87 573.59 512.11 579.88 527.34 587.39 542.57 595.61 557.8 587.4 567.23 579 574.19 570.33 578.63 561.35 580.66 551.99 580.5 542.23 578.5 532.03 575.15 521.36 570.99 510.23 566.62 498.61 562.69 486.53 559.81 474 558.54 461.05 559.4 447.69 562.77 433.98 568.89 419.95 577.89 407.99 576.26 395.63 576.97 382.9 579.55 369.82 583.44 356.43 588.01 342.77 592.62 328.88 596.64 314.81 599.46 300.59 600.58 286.29 599.57 271.95 596.16 257.61 590.18 243.32 581.63 229.12 570.63 215.05 557.45 201.13 542.46 198.19 527.56 195.5 512.66 193.24 497.76 191.58 482.86 190.61 467.96 190.4 453.06 190.98 438.16 192.29 423.26 194.25 408.36 196.73 393.46 199.57 378.56 202.56 363.66 205.52 348.77 208.24 333.87 210.54 318.97 212.27 304.07 225.86 301.42 239.32 297.38 252.61 291.84 265.68 284.76 278.51 276.18 291.06 266.23 303.31 255.13 315.25 243.12 326.85 230.5 338.12 217.6 349.06 204.75 359.68 192.24 370 180.37 380.04 169.36 394.63 155 399.42 150.59" stroke-dasharray="1 4" transform="rotate(32.32, 400, 400)" opacity="0.37"></path><path d="M404.48 162.47Q418.96 167.78 433.48 174.19 447.99 181.76 462.42 190.49 476.74 200.33 490.88 211.16 504.8 222.81 518.44 235.06 531.77 247.66 544.74 260.32 557.3 272.75 569.44 284.65 581.13 295.75 592.34 305.8 603.06 314.6 613.3 322.01 608.17 336.43 601.77 350.85 594.48 365.27 586.74 379.69 579.02 394.11 571.78 408.53 565.45 422.95 560.41 437.37 556.96 451.79 555.31 466.21 555.56 480.63 557.69 495.05 561.58 509.47 566.99 523.89 573.6 538.31 581.01 552.73 573.24 559.64 565.34 564.34 548.83 566.6 531.5 563.79 522.27 560.33 512.65 556.43 502.65 552.59 492.24 549.34 481.42 547.17 470.19 546.56 458.57 547.89 446.58 551.47 434.22 557.48 421.54 566.01 409.62 564.34 397.37 564.73 384.81 566.8 371.98 570.11 358.91 574.14 345.64 578.36 332.21 582.24 318.66 585.26 305.03 586.98 291.36 587 277.7 585.04 264.08 580.9 250.54 574.49 237.11 565.84 223.82 555.1 210.69 542.49 207.86 528.29 205.33 514.08 203.25 499.87 201.77 485.66 200.95 471.45 200.85 457.24 201.48 443.03 202.8 428.82 204.73 414.61 207.16 400.4 209.93 386.19 212.89 371.98 215.85 357.78 218.64 343.57 221.09 329.36 223.06 315.15 236.05 311.64 248.95 306.75 261.7 300.45 274.29 292.76 286.67 283.76 298.82 273.6 310.72 262.5 322.33 250.69 333.65 238.45 344.67 226.06 355.38 213.79 365.77 201.92 375.86 190.68 385.66 180.27 399.83 166.65 404.48 162.47" stroke-dasharray="3 10" transform="rotate(36.36, 400, 400)" opacity="0.96"></path><path d="M409.29 174.34Q422.82 179.27 436.32 185.21 449.73 192.21 463.01 200.27 476.11 209.37 489.01 219.41 501.66 230.26 514.02 241.74 526.07 253.65 537.76 265.75 549.09 277.79 560.02 289.52 570.55 300.68 580.66 311.05 590.35 320.43 599.63 328.64 594.33 342.21 588.05 355.78 581.14 369.34 573.95 382.91 566.87 396.48 560.27 410.05 554.51 423.61 549.89 437.18 546.65 450.75 544.98 464.32 544.95 477.89 546.57 491.45 549.75 505.02 554.33 518.59 559.64 541.27 551.78 553.15 536.43 552.96 520.51 548.97 512.12 545.6 503.44 542.07 494.45 538.81 485.13 536.24 475.46 534.77 465.45 534.75 455.08 536.48 444.38 540.21 433.34 546.08 421.99 554.15 410.2 552.43 398.14 552.54 385.86 554.16 373.37 556.92 360.71 560.41 347.91 564.21 335.03 567.86 322.07 570.94 309.1 573.07 296.13 573.88 283.2 573.11 270.35 570.53 257.59 566.03 244.96 559.55 232.48 551.15 220.16 540.94 217.47 527.46 215.13 513.99 213.27 500.51 211.97 487.04 211.3 473.56 211.32 460.09 212 446.62 213.32 433.14 215.21 419.67 217.56 406.19 220.26 392.72 223.15 379.25 226.08 365.77 228.91 352.3 231.47 338.83 233.64 325.35 246.01 320.94 258.32 315.24 270.52 308.25 282.58 300.05 294.49 290.75 306.21 280.5 317.71 269.51 328.98 258 340 246.21 350.74 234.38 361.21 222.75 371.39 211.54 381.28 200.96 390.89 191.15 404.75 178.29 409.29 174.34" stroke-dasharray="7 10" transform="rotate(40.400000000000006, 400, 400)" opacity="0.42"></path><path d="M413.6 186.2Q426.08 190.76 438.46 196.24 450.71 202.67 462.78 210.08 474.66 218.44 486.31 227.68 497.7 237.7 508.81 248.36 519.61 259.51 530.1 270.94 540.25 282.46 550.05 293.85 559.49 304.9 568.59 315.38 577.33 325.13 585.73 333.95 580.39 346.63 574.34 359.31 567.85 371.99 561.22 384.68 554.77 397.36 548.8 410.04 543.59 422.72 539.37 435.4 536.35 448.08 534.67 460.76 534.4 473.44 535.57 486.13 538.1 498.81 541.9 511.49 538.7 536.23 524.11 539.24 509.26 534.01 493.85 527.95 477.26 523.94 459.85 523.08 450.65 525.16 441.14 529 431.35 534.69 421.26 542.28 409.71 540.55 397.97 540.41 386.06 541.6 374.01 543.85 361.87 546.82 349.65 550.16 337.38 553.52 325.11 556.54 312.85 558.9 300.63 560.29 288.49 560.45 276.44 559.17 264.5 556.3 252.7 551.76 241.04 545.51 229.55 537.61 227.06 524.91 224.94 512.21 223.29 499.52 222.18 486.82 221.68 474.13 221.79 461.43 222.53 448.74 223.84 436.04 225.67 423.35 227.94 410.65 230.54 397.96 233.34 385.26 236.23 372.57 239.05 359.87 241.68 347.18 244 334.48 255.73 329.2 267.42 322.77 279.03 315.21 290.54 306.64 301.94 297.17 313.18 286.96 324.26 276.2 335.14 265.08 345.82 253.81 356.26 242.6 366.47 231.65 376.42 221.13 386.11 211.21 395.54 202.02 409.15 189.93 413.6 186.2" stroke-dasharray="2 3" transform="rotate(44.44, 400, 400)" opacity="0.11"></path><path d="M417.2 198.07Q428.54 202.27 439.75 207.28 450.8 213.16 461.65 219.92 472.3 227.53 482.72 235.97 492.89 245.14 502.8 254.95 512.43 265.27 521.77 275.95 530.82 286.82 539.57 297.72 548.03 308.46 556.18 318.85 564.06 328.74 571.65 337.95 566.4 349.72 560.65 361.49 554.63 373.26 548.58 385.02 542.75 396.79 537.38 408.56 532.68 420.33 528.85 432.1 526.05 443.87 524.38 455.64 523.92 467.4 524.68 479.17 526.64 490.94 529.71 502.71 525.69 523.66 511.82 524.54 498.09 519.4 484.01 514.12 469.08 511.35 453.54 511.57 445.37 513.93 436.96 517.82 428.31 523.3 419.41 530.41 408.22 528.68 396.91 528.33 385.49 529.14 374 530.91 362.47 533.37 350.91 536.25 339.35 539.26 327.82 542.12 316.34 544.56 304.93 546.32 293.61 547.17 282.4 546.92 271.31 545.4 260.35 542.51 249.54 538.19 238.88 532.41 236.63 520.53 234.75 508.65 233.33 496.78 232.43 484.9 232.07 473.02 232.29 461.15 233.06 449.27 234.36 437.39 236.13 425.52 238.3 413.64 240.78 401.76 243.48 389.89 246.28 378.01 249.06 366.13 251.72 354.26 254.15 342.38 265.21 336.33 276.24 329.29 287.23 321.32 298.16 312.52 309 303.03 319.73 293 330.33 282.58 340.78 271.94 351.06 261.27 361.16 250.73 371.06 240.48 380.75 230.67 390.22 221.43 399.45 212.87 412.82 201.57 417.2 198.07" stroke-dasharray="8 9" transform="rotate(48.48, 400, 400)" opacity="0.73"></path><path d="M419.88 209.94Q430.05 213.78 440.07 218.34 449.91 223.67 459.57 229.78 469.02 236.66 478.25 244.29 487.26 252.6 496.03 261.53 504.56 270.97 512.84 280.82 520.88 290.94 528.66 301.21 536.21 311.46 543.51 321.56 550.59 331.36 557.44 340.7 552.39 351.54 547.01 362.38 541.49 373.22 536.01 384.06 530.79 394.9 525.99 405.74 521.79 416.58 518.34 427.42 515.75 438.26 514.11 449.1 513.49 459.94 513.91 470.78 515.35 481.62 517.76 492.46 503.18 508.78 487.02 504.9 474 500.91 460.65 498.57 446.57 500.82 431.98 506.67 424.35 511.92 416.53 518.54 405.83 516.84 395.07 516.3 384.27 516.78 373.44 518.11 362.61 520.09 351.8 522.5 341.02 525.13 330.3 527.75 319.65 530.14 309.09 532.09 298.63 533.41 288.28 533.91 278.06 533.46 267.96 531.93 258.01 529.24 248.2 525.33 246.21 514.31 244.59 503.28 243.41 492.26 242.7 481.23 242.5 470.21 242.8 459.19 243.6 448.16 244.87 437.14 246.57 426.11 248.63 415.09 250.99 404.07 253.56 393.04 256.24 382.02 258.96 371 261.6 359.98 264.08 348.95 274.44 342.28 284.79 334.79 295.13 326.57 305.42 317.73 315.67 308.37 325.83 298.64 335.91 288.67 345.87 278.61 355.71 268.6 365.41 258.77 374.95 249.26 384.32 240.18 393.51 231.64 402.5 223.71 415.59 213.2 419.88 209.94" stroke-dasharray="8 9" transform="rotate(52.52, 400, 400)" opacity="0.25"></path><path d="M421.51 221.81Q430.5 225.29 439.34 229.42 448.02 234.21 456.51 239.69 464.82 245.85 472.93 252.68 480.85 260.13 488.56 268.15 496.07 276.69 503.38 285.64 510.48 294.92 517.39 304.42 524.1 314.04 530.63 323.64 536.98 333.11 543.16 342.33 538.39 352.24 533.44 362.14 528.43 372.05 523.54 381.95 518.9 391.85 514.65 401.76 510.92 411.66 507.82 421.57 505.44 431.47 503.86 441.37 503.12 451.28 503.24 461.18 504.23 471.08 506.05 480.99 491.26 494.43 476.06 490.68 464.09 487.78 451.94 486.58 439.33 489.52 426.36 495.56 411.17 502.77 392.61 504.32 382.52 504.51 372.45 505.44 362.41 506.97 352.42 508.93 342.48 511.15 332.62 513.47 322.85 515.7 313.17 517.68 303.59 519.26 294.13 520.28 284.79 520.61 275.58 520.13 261.15 512.53 254.47 496.15 253.52 486.01 253.01 475.87 252.94 465.73 253.33 455.58 254.15 445.44 255.39 435.3 257.01 425.15 258.95 415.01 261.16 404.86 263.58 394.72 266.13 384.58 268.74 374.43 271.32 364.29 273.8 354.14 283.43 347.04 293.08 339.31 302.72 331.03 312.35 322.31 321.95 313.24 331.5 303.94 340.99 294.53 350.41 285.12 359.74 275.83 368.97 266.76 378.09 258.01 387.07 249.67 395.92 241.83 404.61 234.54 417.33 224.83 421.51 221.81" stroke-dasharray="7 6" transform="rotate(56.56, 400, 400)" opacity="0.26"></path><path d="M421.99 233.68Q437.55 240.52 452.5 249.65 466.81 261.15 480.46 274.86 493.45 290.48 505.82 307.49 517.59 325.25 528.85 343.03 519.95 360.97 511.15 378.91 503.34 396.85 497.3 414.78 493.62 432.72 492.68 450.66 491.1 476.15 476.43 480.15 465.37 476.83 454.34 474.76 443.22 474.87 431.91 477.93 420.3 484.48 408.32 494.8 389.69 492.39 371.18 492.91 352.89 495.54 334.89 499.32 317.25 503.2 300.01 506.17 283.23 507.31 266.9 505.87 264.4 487.39 263.36 468.9 263.88 450.42 265.91 431.93 269.24 413.44 273.55 394.96 278.41 376.47 283.32 357.98 301.1 342.9 318.94 326.33 336.74 308.95 354.41 291.51 371.86 274.7 389 259.15 405.74 245.37 421.99 233.68 421.99 233.68 421.99 233.68" stroke-dasharray="9 4" transform="rotate(60.599999999999994, 400, 400)" opacity="0.25"></path><path d="M421.31 245.55Q434.72 251.63 447.61 259.66 459.98 269.7 471.82 281.68 483.17 295.39 494.04 310.5 504.49 326.54 514.56 343 506.57 359.09 498.87 375.18 492.08 391.27 486.78 407.36 483.4 423.45 482.22 439.55 479.6 462.23 465.36 465.82 455.05 463.46 444.84 462.46 434.67 463.46 424.42 467 414.04 473.43 403.44 482.93 386.52 480.51 369.8 480.52 353.34 482.38 337.19 485.38 321.4 488.76 305.99 491.77 290.97 493.68 276.35 493.87 274.41 477.2 273.76 460.53 274.45 443.86 276.43 427.2 279.52 410.53 283.49 393.86 287.99 377.19 292.65 360.52 308.9 345.64 325.23 329.85 341.59 313.72 357.91 297.79 374.11 282.6 390.13 268.61 405.88 256.18 421.31 245.55 421.31 245.55 421.31 245.55" stroke-dasharray="6 5" transform="rotate(64.64, 400, 400)" opacity="0.15"></path><path d="M419.49 257.42Q430.91 262.77 441.93 269.73 452.54 278.38 462.76 288.66 472.61 300.47 482.13 313.59 491.36 327.73 500.35 342.51 493.32 356.79 486.68 371.07 480.87 385.35 476.27 399.62 473.19 413.9 471.85 428.18 468.43 448.33 454.73 451.98 445.16 450.61 435.74 450.59 426.41 452.34 417.12 456.21 407.79 462.41 398.38 471.06 383.3 468.68 368.46 468.28 353.9 469.43 339.64 471.67 325.7 474.45 312.1 477.23 298.84 479.47 285.91 480.68 284.51 465.83 284.22 450.98 285.04 436.14 286.94 421.29 289.79 406.44 293.38 391.6 297.48 376.75 301.82 361.9 316.48 347.67 331.25 333 346.09 318.31 360.95 304.02 375.77 290.49 390.5 278.06 405.1 266.98 419.49 257.42 419.49 257.42 419.49 257.42" stroke-dasharray="1 3" transform="rotate(68.68, 400, 400)" opacity="0.18"></path><path d="M416.64 269.29Q426.26 273.93 435.58 279.87 444.62 287.18 453.38 295.84 461.89 305.78 470.18 316.9 478.29 329 486.25 341.86 480.21 354.37 474.59 366.88 469.69 379.39 465.75 391.91 462.99 404.42 461.56 416.93 457.59 434.76 444.6 438.76 435.78 438.35 427.13 439.18 418.61 441.51 410.18 445.55 401.79 451.42 393.4 459.2 380.26 456.91 367.35 456.17 354.71 456.73 342.33 458.24 330.23 460.37 318.42 462.72 300.8 459.26 294.73 440.55 295.66 427.51 297.46 414.47 300.03 401.43 303.24 388.4 306.9 375.36 310.84 362.32 323.88 349.14 337.03 335.87 350.28 322.8 363.59 310.22 376.91 298.39 390.22 287.52 410.06 273.53 416.64 269.29" stroke-dasharray="5 9" transform="rotate(72.72, 400, 400)" opacity="0.72"></path><path d="M412.91 281.15Q420.92 285.11 428.73 290.09 436.36 296.13 443.81 303.25 451.1 311.4 458.27 320.54 465.33 330.57 472.3 341.34 467.26 352.14 462.61 362.94 458.54 373.73 455.23 384.53 452.8 395.33 451.36 406.13 447.08 421.8 434.98 426.27 419.17 428.85 403.77 435.01 396.24 440.46 388.77 447.33 377.59 445.17 366.63 444.21 355.88 444.26 345.36 445.13 335.06 446.59 324.99 448.4 310.08 445.56 305.31 429.55 306.3 418.29 307.98 407.03 310.26 395.78 313.06 384.52 316.27 373.26 319.75 362.01 331.13 350.23 342.63 338.58 354.23 327.26 365.91 316.45 377.64 306.32 389.4 296.99 407.03 284.87 412.91 281.15" stroke-dasharray="8 3" transform="rotate(76.76, 400, 400)" opacity="0.98"></path><path d="M408.49 293.02Q421.5 300.79 434.18 310.92 440.36 317.4 446.47 324.65 452.53 332.63 458.55 341.27 454.47 350.41 450.72 359.55 447.44 368.69 444.71 377.83 442.62 386.97 441.23 396.11 436.89 409.71 425.89 414.61 411.77 418.23 398.03 424.59 383.42 431.5 366.43 432.38 348.89 432.63 331.87 434.41 319.56 431.84 315.96 418.33 316.97 408.81 318.49 399.3 320.48 389.78 322.87 380.27 325.59 370.75 328.57 361.24 338.28 351.13 348.1 341.27 358.01 331.78 368 322.75 378.05 314.29 388.16 306.48 403.4 296.2 408.49 293.02" stroke-dasharray="5 8" transform="rotate(80.80000000000001, 400, 400)" opacity="0.25"></path><path d="M403.61 304.9Q414.22 310.78 424.61 318.9 434.85 329.32 445.03 341.94 438.95 357.01 434.2 372.07 431.17 387.14 430.11 402.2 417.32 403.85 404.99 407.76 393.08 414.29 381.51 423.58 366.89 420.69 352.76 419.98 339.1 420.91 325.87 422.85 326.69 407.22 329.01 391.59 332.66 375.95 337.33 360.32 353.49 344.07 369.96 329.15 386.68 316 403.61 304.9 403.61 304.9 403.61 304.9" stroke-dasharray="2 1" transform="rotate(84.84, 400, 400)" opacity="0.66"></path><path d="M398.55 316.77Q406.93 321.26 415.23 327.21 423.49 334.67 431.76 343.62 427.27 355.57 423.68 367.51 421.16 379.46 419.86 391.4 409.26 394.02 398.98 398.21 389 404.09 379.27 411.72 368.12 409.14 357.27 407.99 342.1 402.29 339.53 384.24 342.44 371.9 346.07 359.56 358.87 347.11 371.89 335.71 391.84 321.16 398.55 316.77" stroke-dasharray="8 10" transform="rotate(88.88, 400, 400)" opacity="0.60"></path><path d="M393.56 328.63Q406.15 336.31 418.77 346.54 415.71 355.44 413.16 364.34 406.46 379.21 393.67 389.1 378 395.86 362.39 396.41 351.57 391.26 350.05 377.56 352.22 368.42 354.83 359.29 364.3 350.53 373.92 342.46 388.62 331.89 393.56 328.63" stroke-dasharray="6 8" transform="rotate(92.92, 400, 400)" opacity="0.87"></path><path d="M388.92 340.5Q397.46 344.92 406.07 350.87 402.64 362.71 400.25 374.55 389.04 380.43 378.15 387.98 364.36 378.55 363.65 359.8 382.53 344.97 388.92 340.5" stroke-dasharray="0 1" transform="rotate(96.96, 400, 400)" opacity="0.34"></path></g></svg>